<svg xmlns="http://www.w3.org/2000/svg" width="37.23" height="31.991" viewBox="0 0 37.23 31.991">
  <g id="Group_3129" data-name="Group 3129" transform="translate(-34.275 -502.485)">
    <g id="Group_3126" data-name="Group 3126" transform="translate(35.025 503.235)">
      <g id="Group_3124" data-name="Group 3124" transform="translate(19.68 0)">
        <path id="Path_3669" data-name="Path 3669" d="M926.212,1436.521v-7.935a2.213,2.213,0,0,1,2.036-2.409,2.292,2.292,0,0,1,2.167,2.384v15.4l-7.062,9.221s-.766.892-.539,4.156" transform="translate(-914.364 -1426.177)" fill="none" stroke="#ed1c24" stroke-linejoin="round" stroke-width="1.5"/>
        <path id="Path_3670" data-name="Path 3670" d="M909.022,1465.362l.009-7.157c0-2.781,3.243-4.664,3.243-4.664a24.4,24.4,0,0,0,3.139-2.7l2.767-3c1.14-1.236,2.788-1.59,3.659-.786s.654,2.47-.487,3.706l-3.89,4.214" transform="translate(-909.022 -1434.123)" fill="none" stroke="#ed1c24" stroke-width="1.5"/>
      </g>
      <g id="Group_3125" data-name="Group 3125" transform="translate(0 0)">
        <path id="Path_3671" data-name="Path 3671" d="M881.043,1436.521v-7.935a2.212,2.212,0,0,0-2.035-2.409,2.292,2.292,0,0,0-2.168,2.384v15.4l7.061,9.221s.766.892.539,4.156" transform="translate(-876.839 -1426.177)" fill="none" stroke="#ed1c24" stroke-linejoin="round" stroke-width="1.5"/>
        <path id="Path_3672" data-name="Path 3672" d="M894.605,1465.362l-.009-7.157c0-2.781-3.243-4.664-3.243-4.664a24.325,24.325,0,0,1-3.137-2.7l-2.769-3c-1.139-1.236-2.786-1.59-3.659-.786s-.652,2.47.489,3.706l3.89,4.214" transform="translate(-878.555 -1434.123)" fill="none" stroke="#ed1c24" stroke-width="1.5"/>
      </g>
    </g>
  </g>
</svg>
