<svg xmlns="http://www.w3.org/2000/svg" width="35.099" height="35.1" viewBox="0 0 35.099 35.1">
  <g id="Group_2473" data-name="Group 2473" transform="translate(-111.082 -9311.602)">
    <g id="Group_2472" data-name="Group 2472" transform="translate(111.832 9312.352)">
      <g id="Group_2471" data-name="Group 2471">
        <path id="Path_2421" data-name="Path 2421" d="M117.718,9335.629l-2.66,3.707,3.389,3.389,3.707-2.66a12.56,12.56,0,0,0,3.313,1.376l.767,4.511h4.794l.768-4.51a12.62,12.62,0,0,0,3.314-1.377l3.706,2.66,3.389-3.389-2.659-3.705a12.626,12.626,0,0,0,1.384-3.344l4.5-.738v-4.795l-4.5-.738a12.573,12.573,0,0,0-1.368-3.318l2.644-3.729-3.389-3.39-3.729,2.646a12.611,12.611,0,0,0-3.318-1.37l-.74-4.5h-4.794l-.74,4.5a12.587,12.587,0,0,0-3.317,1.368l-3.73-2.646-3.389,3.389,2.645,3.729a12.6,12.6,0,0,0-1.363,3.292l-4.508.766v4.795l4.508.766A12.576,12.576,0,0,0,117.718,9335.629Z" transform="translate(-111.832 -9312.352)" fill="none" stroke="#ed1c24" stroke-linecap="round" stroke-linejoin="round" stroke-width="1.5"/>
      </g>
    </g>
    <path id="Path_2422" data-name="Path 2422" d="M134.336,9332.158a4.9,4.9,0,1,1-2.872,3.2" transform="translate(-7.555 -7.555)" fill="none" stroke="#ed1c24" stroke-linecap="round" stroke-linejoin="round" stroke-width="1.5"/>
  </g>
</svg>
