<svg xmlns="http://www.w3.org/2000/svg" width="32.292" height="35.73" viewBox="0 0 32.292 35.73">
  <g id="Group_3123" data-name="Group 3123" transform="translate(-238.215 -2045.805)">
    <g id="Group_3119" data-name="Group 3119" transform="translate(248.477 2046.555)">
      <path id="Path_3663" data-name="Path 3663" d="M267.245,2049.557a3,3,0,1,1-3-3A3,3,0,0,1,267.245,2049.557Z" transform="translate(-258.359 -2046.555)" fill="none" stroke="#ed1c24" stroke-width="1.5"/>
      <path id="Path_3664" data-name="Path 3664" d="M265.233,2087.9l.286-11.747c1.1-.4,2.419-1.318,2.3-2.477l-.9-8.938a2.4,2.4,0,0,0-2.33-2.108H259.3a2.4,2.4,0,0,0-2.33,2.108l-.9,8.938c-.117,1.159,1.2,2.081,2.3,2.477l.285,11.747" transform="translate(-256.06 -2053.686)" fill="none" stroke="#ed1c24" stroke-linecap="round" stroke-linejoin="round" stroke-width="1.5"/>
    </g>
    <g id="Group_3122" data-name="Group 3122" transform="translate(238.968 2050.222)">
      <g id="Group_3120" data-name="Group 3120" transform="translate(22.896 0)">
        <path id="Path_3665" data-name="Path 3665" d="M282.79,2053.146a2.665,2.665,0,1,1-2.665,2.664A2.665,2.665,0,0,1,282.79,2053.146Z" transform="translate(-280.125 -2053.146)" fill="none" stroke="#ed1c24" stroke-width="1.5"/>
        <path id="Path_3666" data-name="Path 3666" d="M286.15,2090.16l.253-10.428c.979-.353,2.148-1.171,2.044-2.2l-.8-7.936a2.129,2.129,0,0,0-2.069-1.871h-4.461" transform="translate(-280.566 -2059.615)" fill="none" stroke="#ed1c24" stroke-linecap="round" stroke-linejoin="round" stroke-width="1.5"/>
      </g>
      <g id="Group_3121" data-name="Group 3121" transform="translate(0 0)">
        <path id="Path_3667" data-name="Path 3667" d="M246.234,2053.146a2.665,2.665,0,1,0,2.665,2.664A2.664,2.664,0,0,0,246.234,2053.146Z" transform="translate(-241.01 -2053.146)" fill="none" stroke="#ed1c24" stroke-width="1.5"/>
        <path id="Path_3668" data-name="Path 3668" d="M241.272,2090.16l-.253-10.428c-.979-.353-2.149-1.171-2.045-2.2l.8-7.936a2.129,2.129,0,0,1,2.068-1.871h4.462" transform="translate(-238.968 -2059.615)" fill="none" stroke="#ed1c24" stroke-linecap="round" stroke-linejoin="round" stroke-width="1.5"/>
      </g>
    </g>
  </g>
</svg>
