<svg xmlns="http://www.w3.org/2000/svg" xmlns:xlink="http://www.w3.org/1999/xlink" width="106.029" height="56.088" viewBox="0 0 106.029 56.088">
  <defs>
    <clipPath id="clip-path">
      <rect id="Rectangle_4" data-name="Rectangle 4" width="106.029" height="56.088" transform="translate(16.05 16.27)" fill="none"/>
    </clipPath>
    <clipPath id="clip-path-2">
      <rect id="Rectangle_3" data-name="Rectangle 3" width="106.027" height="56.088" fill="none"/>
    </clipPath>
  </defs>
  <g id="redcross-logo" transform="translate(-16.05 -16.27)" clip-path="url(#clip-path)">
    <g id="Group_1" data-name="Group 1" transform="translate(16.05 16.27)" clip-path="url(#clip-path-2)">
      <line id="Line_1" data-name="Line 1" y2="28.005" transform="translate(49.197 13.854)" fill="none" stroke="#ed1c24" stroke-width="0.48"/>
      <path id="Path_1" data-name="Path 1" d="M177.35,59.79h2.98v5.462h.041c.3-.472.613-.911.927-1.348l3.015-4.114h3.706l-4.411,5.246,4.616,7.075h-3.5l-3.274-5.316-1.125,1.3V72.1H177.35Z" transform="translate(-123.005 -45.127)"/>
      <path id="Path_2" data-name="Path 2" d="M213.222,74.73c.1,1.169,1.321,1.718,2.719,1.718a8.52,8.52,0,0,0,2.664-.384l.384,1.883a9.838,9.838,0,0,1-3.491.566c-3.275,0-5.152-1.753-5.152-4.568a4.641,4.641,0,0,1,4.872-4.767c3.12,0,4.3,2.247,4.3,4.458a6.483,6.483,0,0,1-.1,1.112Zm3.531-1.907a1.65,1.65,0,0,0-1.683-1.806,1.9,1.9,0,0,0-1.873,1.806Z" transform="translate(-144.885 -51.351)"/>
      <path id="Path_3" data-name="Path 3" d="M242.788,72.274c0-1.112-.037-2.042-.078-2.851h2.6l.14,1.247h.047a3.524,3.524,0,0,1,2.978-1.446c1.971,0,3.45,1.223,3.45,3.856v5.279h-3V73.41c0-1.149-.435-1.937-1.523-1.937a1.631,1.631,0,0,0-1.526,1.045,1.816,1.816,0,0,0-.1.694v5.148h-3Z" transform="translate(-166.343 -51.381)"/>
      <path id="Path_4" data-name="Path 4" d="M276.272,69.82l1.442,4.38c.158.529.351,1.192.472,1.664h.06c.14-.475.3-1.153.431-1.664l1.192-4.38h3.2l-2.247,5.889c-1.381,3.545-2.308,4.95-3.393,5.846a5.469,5.469,0,0,1-2.906,1.221l-.631-2.338a4.972,4.972,0,0,0,1.3-.475,3.3,3.3,0,0,0,1.243-1.115.748.748,0,0,0,.162-.4,1.173,1.173,0,0,0-.121-.459L272.94,69.82Z" transform="translate(-186.388 -51.778)"/>
      <path id="Path_5" data-name="Path 5" d="M313.2,76.291a10.49,10.49,0,0,0,.158,2.153h-2.7l-.175-.893h-.074a3.632,3.632,0,0,1-2.763,1.1,2.862,2.862,0,0,1-3.12-2.739c0-2.321,2.247-3.416,5.657-3.416v-.108c0-.478-.269-1.155-1.753-1.155a6.025,6.025,0,0,0-2.664.674l-.552-1.769a8.4,8.4,0,0,1,3.75-.806c3.215,0,4.218,1.753,4.218,3.856Zm-2.9-2.069c-1.58,0-2.8.337-2.8,1.409a1.042,1.042,0,0,0,1.179,1.061,1.657,1.657,0,0,0,1.56-1.011,1.951,1.951,0,0,0,.057-.475Z" transform="translate(-207.339 -51.45)"/>
      <path id="Path_6" data-name="Path 6" d="M176.43,113.825a12.732,12.732,0,0,1,2.2-.182,3.949,3.949,0,0,1,2.581.674,1.988,1.988,0,0,1,.7,1.56,2.2,2.2,0,0,1-1.683,2.082V118a2.107,2.107,0,0,1,1.3,1.655,14.1,14.1,0,0,0,.674,2.251H181.01a9.586,9.586,0,0,1-.576-1.957c-.263-1.136-.748-1.56-1.789-1.6h-1.078V121.9H176.42Zm1.146,3.73h1.172c1.223,0,2-.623,2-1.56,0-1.061-.832-1.523-2.021-1.523a5.258,5.258,0,0,0-1.132.1Z" transform="translate(-122.387 -80.833)"/>
      <path id="Path_7" data-name="Path 7" d="M197.246,123.529a1.945,1.945,0,0,0,2.166,2.021,4.4,4.4,0,0,0,1.765-.306l.21.771a5.519,5.519,0,0,1-2.129.377,2.86,2.86,0,0,1-3.13-2.972,2.964,2.964,0,0,1,3-3.177,2.547,2.547,0,0,1,2.618,2.776,2.118,2.118,0,0,1-.043.5Zm3.369-.771a1.572,1.572,0,0,0-1.594-1.742,1.837,1.837,0,0,0-1.776,1.742Z" transform="translate(-135.454 -85.211)"/>
      <path id="Path_8" data-name="Path 8" d="M221.64,112.53v7.126a15.1,15.1,0,0,0,.047,1.519H220.65l-.05-1.011h-.03a2.359,2.359,0,0,1-2.157,1.155,2.776,2.776,0,0,1-2.734-3,2.911,2.911,0,0,1,2.853-3.164,2.164,2.164,0,0,1,1.924.89h.024v-3.52Zm-1.162,5.152a1.957,1.957,0,0,0-.05-.461,1.683,1.683,0,0,0-1.683-1.23c-1.192,0-1.907.974-1.907,2.267a1.936,1.936,0,0,0,1.883,2.19,1.728,1.728,0,0,0,1.683-1.294,1.659,1.659,0,0,0,.05-.448Z" transform="translate(-148.417 -80.098)"/>
      <path id="Path_9" data-name="Path 9" d="M252.581,121.529a6.1,6.1,0,0,1-2.342.388c-2.5,0-4.38-1.462-4.38-4.154,0-2.567,1.877-4.3,4.627-4.3a5.485,5.485,0,0,1,2.1.337l-.286.876a4.379,4.379,0,0,0-1.779-.337,3.166,3.166,0,0,0-3.46,3.369,3.081,3.081,0,0,0,3.4,3.288,4.862,4.862,0,0,0,1.877-.337Z" transform="translate(-168.432 -80.714)"/>
      <path id="Path_10" data-name="Path 10" d="M269.894,122.28c0-.7,0-1.291-.054-1.84h1.011l.05,1.159h.041a1.9,1.9,0,0,1,1.776-1.291,2.2,2.2,0,0,1,.313.024v1.011c-.114,0-.233-.02-.391-.02a1.577,1.577,0,0,0-1.553,1.348,2.955,2.955,0,0,0-.041.5v3.15h-1.153Z" transform="translate(-184.332 -85.256)"/>
      <path id="Path_11" data-name="Path 11" d="M284.045,126.467A2.914,2.914,0,0,1,281,123.435a2.992,2.992,0,0,1,3.155-3.127,2.895,2.895,0,0,1,3.066,3.032,3.006,3.006,0,0,1-3.16,3.14Zm.05-.8a2.076,2.076,0,0,0,1.937-2.3,1.956,1.956,0,1,0-1.947,2.3Z" transform="translate(-191.728 -85.254)"/>
      <path id="Path_12" data-name="Path 12" d="M302.814,125.237a3.435,3.435,0,0,0,1.536.414c.832,0,1.226-.377,1.226-.876s-.337-.778-1.176-1.071c-1.155-.388-1.683-.974-1.683-1.668,0-.95.841-1.728,2.194-1.728a3.17,3.17,0,0,1,1.553.36l-.276.771a2.81,2.81,0,0,0-1.3-.337c-.674,0-1.052.364-1.052.8s.371.7,1.2,1.011c1.088.374,1.668.89,1.668,1.765,0,1.048-.879,1.779-2.359,1.779a3.814,3.814,0,0,1-1.789-.414Z" transform="translate(-206.022 -85.254)"/>
      <path id="Path_13" data-name="Path 13" d="M318.3,125.237a3.436,3.436,0,0,0,1.536.414c.829,0,1.223-.377,1.223-.876s-.337-.778-1.169-1.071c-1.155-.388-1.683-.974-1.683-1.668,0-.95.841-1.728,2.194-1.728a3.16,3.16,0,0,1,1.553.36l-.276.771a2.783,2.783,0,0,0-1.3-.337c-.674,0-1.052.364-1.052.8s.367.7,1.2,1.011c1.1.374,1.683.89,1.683,1.765,0,1.048-.883,1.779-2.358,1.779a3.847,3.847,0,0,1-1.793-.414Z" transform="translate(-216.3 -85.254)"/>
      <path id="Path_14" data-name="Path 14" d="M36.7,27.817s1.153.135,1.422-.771-.741-5.364-7.79-10.376c0,0-.364-.337-.549-.273" transform="translate(-25.154 -16.351)" fill="#fff"/>
      <path id="Path_15" data-name="Path 15" d="M36.7,27.817s1.153.135,1.422-.771-.741-5.364-7.79-10.376c0,0-.364-.337-.549-.273" transform="translate(-25.154 -16.351)" fill="none" stroke="#231f20" stroke-linecap="round" stroke-width="0.24"/>
      <path id="Path_16" data-name="Path 16" d="M36.683,27.846s-.4,1.1-1.324.927-4.451-3.085-5.728-11.638c0,0-.125-.549.02-.674" transform="translate(-25.022 -16.396)" fill="#231f20"/>
      <path id="Path_17" data-name="Path 17" d="M36.683,27.846s-.4,1.1-1.324.927-4.451-3.085-5.728-11.638c0,0-.125-.549.02-.674" transform="translate(-25.022 -16.396)" fill="none" stroke="#231f20" stroke-linecap="round" stroke-width="0.24"/>
      <path id="Path_18" data-name="Path 18" d="M36.42,27.2S51,47.812,68.849,77.139c1.061,1.745-1.465,2.577-2.166,1.479C66.2,77.87,51.777,56.172,36.42,27.2Z" transform="translate(-29.557 -23.517)" fill="#231f20"/>
      <path id="Path_19" data-name="Path 19" d="M109.82,27.817s-1.155.135-1.425-.771.741-5.364,7.79-10.376c0,0,.364-.337.549-.273" transform="translate(-77.256 -16.351)" fill="#fff"/>
      <path id="Path_20" data-name="Path 20" d="M109.82,27.817s-1.155.135-1.425-.771.741-5.364,7.79-10.376c0,0,.364-.337.549-.273" transform="translate(-77.256 -16.351)" fill="none" stroke="#231f20" stroke-linecap="round" stroke-width="0.24"/>
      <path id="Path_21" data-name="Path 21" d="M112.34,27.838s.4,1.1,1.324.923,4.451-3.085,5.728-11.638c0,0,.125-.549-.02-.674" transform="translate(-79.898 -16.389)" fill="#231f20"/>
      <path id="Path_22" data-name="Path 22" d="M112.34,27.838s.4,1.1,1.324.923,4.451-3.085,5.728-11.638c0,0,.125-.549-.02-.674" transform="translate(-79.898 -16.389)" fill="none" stroke="#231f20" stroke-linecap="round" stroke-width="0.24"/>
      <path id="Path_23" data-name="Path 23" d="M62.264,27.2S47.681,47.812,29.835,77.139C28.77,78.884,31.3,79.716,32,78.618,32.475,77.87,46.9,56.172,62.264,27.2Z" transform="translate(-25.018 -23.517)" fill="#231f20"/>
      <path id="Path_24" data-name="Path 24" d="M44.159,43S24.107,49.89,26.281,68.239c1.779,15.034,16.762,21.524,18.127,21.8,1.223.243,21.085-12.076,18.868-25.229S53.5,46.77,44.159,43Z" transform="translate(-22.723 -33.994)" fill="#fff"/>
      <path id="Path_25" data-name="Path 25" d="M33.748,43.636s-17.715,6.77-17.7,21.654S32.561,87.284,36.71,88.959c3.652,1.479-1.237-1.277-2.173-1.877A25.914,25.914,0,0,1,22.529,65.29c0-14.15,12.524-21.505,13-21.754C36.922,42.814,41.723,40.368,33.748,43.636Z" transform="translate(-16.05 -33.317)" fill="#231f20"/>
      <path id="Path_26" data-name="Path 26" d="M85.438,43.557s17.715,6.775,17.715,21.658S86.641,87.2,82.493,88.88s.829-1.011,2.173-1.877,12.146-7.642,12.146-21.789S84.1,43.682,83.662,43.459C82.557,42.943,77.705,40.386,85.438,43.557Z" transform="translate(-59.033 -33.328)" fill="#ed1c24"/>
      <rect id="Rectangle_1" data-name="Rectangle 1" width="9.222" height="27.658" transform="translate(17.571 18.491)" fill="#ed1c24"/>
      <rect id="Rectangle_2" data-name="Rectangle 2" width="27.658" height="9.222" transform="translate(8.352 27.715)" fill="#ed1c24"/>
    </g>
  </g>
</svg>
